<svg version="1.1" id="Layer_1" xmlns="http://www.w3.org/2000/svg" xmlns:xlink="http://www.w3.org/1999/xlink" x="0px" y="0px" width="32px" height="32px" viewBox="0 0 32 32" enable-background="new 0 0 32 32" xml:space="preserve">
  <g id="main">
    <g id="icon">
      <path d="M3.5,29L3.539,29.19L3.646,29.35L3.805,29.46L4,29.5L23.27,29.5L22.56,28.48L21.36,26.67L20.53,25.28L20.22,24.57L19.99,23.81L19.85,23.04L19.8,22.25L19.83,21.58L19.93,20.93L20.1,20.29L20.32,19.69L20.6,19.11L20.93,18.57L21.31,18.06L21.74,17.59L22.2,17.16L22.71,16.78L23.26,16.45L23.83,16.17L24.44,15.95L25.07,15.79L25.73,15.69L26.4,15.65L26.49,15.66L26.5,15.66L26.5,3.5L3.5,3.5zz" fill="#FFFFFF"/>
      <path d="M3,3.5L3,29L3,29.05L3.01,29.1L3.049,29.29L3.069,29.39L3.125,29.47L3.232,29.63L3.286,29.71L3.367,29.77L3.526,29.88L3.609,29.93L3.706,29.95L3.901,29.99L3.95,30L4,30L23.62,30L22.92,29L4.05,29L4.008,28.99L4,28.95L4,4L26,4L26,15.67L26.4,15.65L26.49,15.66L27,15.7L27,3.5L27,3L26.5,3L3.5,3L3,3zz" fill="#6D6E71"/>
      <path d="M4.118,0.02852L3.855,0.11L3.617,0.2391L3.41,0.41L3.239,0.6172L3.11,0.8551L3.029,1.118L3,1.4L3,4L27,4L27,1.4L26.97,1.118L26.89,0.8551L26.76,0.6172L26.59,0.41L26.38,0.2391L26.14,0.11L25.88,0.02852L25.6,0L4.4,0zz" fill="#217346"/>
      <path d="M6.683,7.113L6.51,7.402L6.559,7.735L6.808,7.962L7,8L10,8L10.32,7.887L10.49,7.598L10.44,7.265L10.19,7.038L10,7L7,7zM6.683,10.11L6.51,10.4L6.559,10.73L6.808,10.96L7,11L10,11L10.32,10.89L10.49,10.6L10.44,10.27L10.19,10.04L10,10L7,10zM6.683,13.11L6.51,13.4L6.559,13.73L6.808,13.96L7,14L10,14L10.32,13.89L10.49,13.6L10.44,13.27L10.19,13.04L10,13L7,13zM6.683,16.11L6.51,16.4L6.559,16.73L6.808,16.96L7,17L10,17L10.32,16.89L10.49,16.6L10.44,16.27L10.19,16.04L10,16L7,16zM6.683,19.11L6.51,19.4L6.559,19.73L6.808,19.96L7,20L10,20L10.32,19.89L10.49,19.6L10.44,19.27L10.19,19.04L10,19L7,19zM6.683,22.11L6.51,22.4L6.559,22.73L6.808,22.96L7,23L10,23L10.32,22.89L10.49,22.6L10.44,22.27L10.19,22.04L10,22L7,22zM6.683,25.11L6.51,25.4L6.559,25.73L6.808,25.96L7,26L10,26L10.32,25.89L10.49,25.6L10.44,25.27L10.19,25.04L10,25L7,25zz" fill="#217346"/>
      <path d="M12.18,7.113L12.01,7.402L12.06,7.735L12.31,7.962L12.5,8L23,8L23.32,7.887L23.49,7.598L23.44,7.265L23.19,7.038L23,7L12.5,7zM12.18,10.11L12.01,10.4L12.06,10.73L12.31,10.96L12.5,11L23,11L23.32,10.89L23.49,10.6L23.44,10.27L23.19,10.04L23,10L12.5,10zM12.18,13.11L12.01,13.4L12.06,13.73L12.31,13.96L12.5,14L23,14L23.32,13.89L23.49,13.6L23.44,13.27L23.19,13.04L23,13L12.5,13zM12.18,16.11L12.01,16.4L12.06,16.73L12.31,16.96L12.5,17L22.42,17L22.71,16.78L23.26,16.45L23.45,16.36L23.44,16.27L23.19,16.04L23,16L12.5,16zM12.18,19.11L12.01,19.4L12.06,19.73L12.31,19.96L12.5,20L20.21,20L20.32,19.69L20.6,19.11L20.67,19L12.5,19zM12.18,22.11L12.01,22.4L12.06,22.73L12.31,22.96L12.5,23L19.85,23L19.8,22.25L19.81,22L12.5,22zM12.18,25.11L12.01,25.4L12.06,25.73L12.31,25.96L12.5,26L20.96,26L20.53,25.28L20.41,25L12.5,25zz" fill="#B4B4B5"/>
    </g>
    <g id="overlay">
      <path d="M26.4801,16.655c-3.1292,-0.0435,-5.6794,2.48,-5.6794,5.5991c0,0.9259,0.2247,1.7992,0.6225,2.5686c0.7906,1.5289,3.8273,5.7955,4.7255,7.048c0.1237,0.1724,0.3796,0.1724,0.5033,0c0.8982,-1.2525,3.9348,-5.5191,4.7255,-7.0479c0.4009,-0.7751,0.626,-1.6559,0.6226,-2.5895C31.9889,19.1944,29.5187,16.6973,26.4801,16.655zM26.4003,24.3091c-1.1349,0,-2.0549,-0.92,-2.0549,-2.0549c0,-1.1349,0.92,-2.0549,2.0549,-2.0549c1.1349,0,2.0549,0.92,2.0549,2.0549C28.4552,23.389,27.5352,24.3091,26.4003,24.3091z" fill="#217346"/>
    </g>
  </g>
</svg>