<svg version="1.1" id="Layer_1" xmlns="http://www.w3.org/2000/svg" xmlns:xlink="http://www.w3.org/1999/xlink" x="0px" y="0px" width="16px" height="16px" viewBox="0 0 16 16" enable-background="new 0 0 16 16" xml:space="preserve">
  <g id="main">
    <g id="icon">
      <path d="M0.5,14L0.5393,14.19L0.6465,14.35L0.8055,14.46L1,14.5L9.959,14.5L9.438,13.75L8.7,12.63L8.19,11.76L7.965,11.26L7.803,10.72L7.704,10.18L7.671,9.622L7.766,8.683L8.038,7.808L8.469,7.016L9.038,6.325L9.729,5.755L10.52,5.325L11.4,5.052L12.34,4.957L12.4,4.958L12.94,4.997L13.46,5.096L13.96,5.251L14.43,5.46L14.5,5.5L14.5,1.5L0.5,1.5zz" fill="#FFFFFF"/>
      <path d="M0,1.5L0,14L0,14.05L0.009961,14.1L0.04922,14.29L0.06895,14.39L0.1248,14.47L0.2318,14.63L0.2863,14.71L0.367,14.77L0.5258,14.88L0.6086,14.93L0.7064,14.95L0.901,14.99L0.95,15L1,15L10.31,15L9.612,14L1.05,14L1.008,13.99L1,13.95L1,2L14,2L14,5.27L14.43,5.46L14.87,5.718L15,5.81L15,1.5L15,1L14.5,1L0.5,1L0,1zz" fill="#6D6E71"/>
      <path d="M0.6107,0.07852L0.293,0.293L0.07852,0.6107L0,1L0,3L15,3L15,1L14.92,0.6107L14.71,0.293L14.39,0.07852L14,0L1,0zz" fill="#217346"/>
      <path d="M2.683,5.113L2.51,5.402L2.559,5.735L2.808,5.962L3,6L5,6L5.317,5.887L5.49,5.598L5.441,5.265L5.192,5.038L5,5L3,5zM2.683,7.113L2.51,7.402L2.559,7.735L2.808,7.962L3,8L5,8L5.317,7.887L5.49,7.598L5.441,7.265L5.192,7.038L5,7L3,7zM2.683,9.113L2.51,9.402L2.559,9.735L2.808,9.962L3,10L5,10L5.317,9.887L5.49,9.598L5.441,9.265L5.192,9.038L5,9L3,9zM2.683,11.11L2.51,11.4L2.559,11.73L2.808,11.96L3,12L5,12L5.317,11.89L5.49,11.6L5.441,11.27L5.192,11.04L5,11L3,11zz" fill="#217346"/>
      <path d="M6.683,5.113L6.51,5.402L6.559,5.735L6.808,5.962L7,6L9.432,6L9.729,5.755L10.52,5.325L11.4,5.052L11.91,5L7,5zM6.683,7.113L6.51,7.402L6.559,7.735L6.808,7.962L7,8L7.978,8L8.038,7.808L8.469,7.016L8.482,7L7,7zM6.683,9.113L6.51,9.402L6.559,9.735L6.808,9.962L7,10L7.693,10L7.671,9.622L7.734,9L7,9zM6.683,11.11L6.51,11.4L6.559,11.73L6.808,11.96L7,12L8.33,12L8.19,11.76L7.965,11.26L7.887,11L7,11zz" fill="#B4B4B5"/>
    </g>
    <g id="overlay">
      <path d="M12.3876,5.9578c-2.0478,-0.0285,-3.7168,1.623,-3.7168,3.6642c0,0.6059,0.1471,1.1775,0.4074,1.681c0.5174,1.0005,2.5047,3.7927,3.0925,4.6124c0.0809,0.1128,0.2484,0.1128,0.3294,0c0.5878,-0.8197,2.5751,-3.6118,3.0925,-4.6123c0.2623,-0.5073,0.4096,-1.0837,0.4074,-1.6947C15.9927,7.6196,14.3762,5.9855,12.3876,5.9578zM12.3354,10.9668c-0.7427,0,-1.3448,-0.6021,-1.3448,-1.3448c0,-0.7427,0.6021,-1.3448,1.3448,-1.3448c0.7427,0,1.3448,0.6021,1.3448,1.3448C13.6802,10.3647,13.0781,10.9668,12.3354,10.9668z" fill="#217346"/>
    </g>
  </g>
</svg>